<?xml version="1.0" encoding="utf-8" ?><svg xmlns="http://www.w3.org/2000/svg" xmlns:xlink="http://www.w3.org/1999/xlink" width="400" height="400"><rect fill="#10182B" width="400" height="400" rx="116" ry="116"/><path fill="#5B8DFF" transform="matrix(1 0 0 1 109.375 137.5)" d="M101.6366 39.1968L17.2616 -23.3032Q7.7009 -30.8206 -4.272 -28.6836Q-16.3481 -27.2388 -23.3032 -17.2616Q-30.8206 -7.7009 -28.6836 4.272Q-27.2388 16.3481 -17.2616 23.3032L35.6541 62.5L-17.2616 101.6968Q-27.2388 108.6519 -28.6836 120.728Q-30.8206 132.7009 -23.3032 142.2616Q-16.3481 152.2388 -4.272 153.6836Q7.7009 155.8206 17.2616 148.3032L101.6366 85.8032Q103.3627 84.5251 104.8811 83.0061Q106.4001 81.4877 107.6782 79.7616Q115.1956 70.2009 113.0586 58.228Q111.6138 46.1519 101.6366 39.1968Z" fill-rule="evenodd"/><rect fill="#3DD68C" transform="matrix(1 0 0 1 223.438 235.938)" width="76.5625" height="43.75" rx="14" ry="14"/></svg>